<svg width="71" height="70" xmlns="http://www.w3.org/2000/svg" xmlns:xlink="http://www.w3.org/1999/xlink" xml:space="preserve" overflow="hidden"><g transform="translate(-391 -144)"><path d="M21.5833 32.6667C23.8438 32.6667 27.125 33.7604 30.6979 34.6354 29.8229 36.4583 29.8229 38.7917 29.8229 38.7917L35.7292 35.6563C36.8229 35.8021 37.8438 35.875 38.8646 35.875 44.0417 35.875 51.9896 32.0104 51.9896 30.1146 51.9896 28.2188 44.0417 24.3542 38.8646 24.3542 37.8438 24.3542 36.8229 24.4271 35.7292 24.5729L29.8229 21.4375C29.8229 21.4375 29.8958 23.8438 30.6979 25.5938 27.1979 26.4688 23.8438 27.5625 21.5833 27.5625L15.8229 24.2812C15.8229 26.5417 17.0625 30.0417 17.0625 30.0417 17.0625 30.0417 15.8229 33.5417 15.8229 35.8021L21.5833 32.6667ZM45.7917 27.7083C46.2292 27.7083 46.5938 28.0729 46.5938 28.5104 46.5938 28.9479 46.2292 29.3125 45.7917 29.3125 45.3542 29.3125 44.9896 28.9479 44.9896 28.5104 44.9896 28.0729 45.3542 27.7083 45.7917 27.7083Z" fill="#026773" transform="matrix(1.01429 0 0 1 391 144)"/><path d="M26.8333 45.2812C25.8125 45.2812 24.7917 45.3542 23.6979 45.5L17.7917 42.3646C17.7917 42.3646 17.8646 44.7708 18.6667 46.5208 15.1667 47.3958 11.8125 48.4896 9.55208 48.4896L3.79167 45.2083C3.79167 47.4688 5.03125 50.9688 5.03125 50.9688 5.03125 50.9688 3.79167 54.4688 3.79167 56.7292L9.55208 53.4479C11.8125 53.4479 15.0938 54.5417 18.6667 55.4167 17.7917 57.2396 17.7917 59.5729 17.7917 59.5729L23.6979 56.4375C24.7917 56.5833 25.8125 56.6562 26.8333 56.6562 32.0104 56.6562 39.9583 52.7917 39.9583 50.8958 39.9583 49 32.0104 45.2812 26.8333 45.2812ZM33.7604 50.2396C33.3229 50.2396 32.9583 49.875 32.9583 49.4375 32.9583 49 33.3229 48.6354 33.7604 48.6354 34.1979 48.6354 34.5625 49 34.5625 49.4375 34.5625 49.875 34.1979 50.2396 33.7604 50.2396Z" fill="#026773" transform="matrix(1.01429 0 0 1 391 144)"/><path d="M64.0208 27.7083 64.0208 10.3542 61.1042 10.3542 61.1042 27.7083C59.7917 28.2917 58.9167 29.5312 58.9167 31.0625 58.9167 32.5938 59.7917 33.8333 61.1042 34.4167L61.1042 49.7292C61.1042 52.1354 59.1354 54.1042 56.7292 54.1042 54.4688 54.1042 52.5729 52.3542 52.3542 50.0938L52.3542 50.0938C52.2812 49.2188 52.4271 48.3438 52.8646 47.6146L55.7812 49.3646 55.7812 37.6979 50.3125 46.0833 50.3854 46.1562C49.7292 47.25 49.4375 48.5625 49.4375 49.8021L49.4375 49.8021C49.4375 53.8125 52.7188 57.0938 56.7292 57.0938 60.7396 57.0938 64.0208 53.8125 64.0208 49.8021L64.0208 34.4896C65.3333 33.9062 66.2083 32.6667 66.2083 31.1354 66.2083 29.6042 65.2604 28.2917 64.0208 27.7083ZM62.5625 32.2292C61.9792 32.2292 61.4688 31.7188 61.4688 31.1354 61.4688 30.5521 61.9792 30.0417 62.5625 30.0417 63.1458 30.0417 63.6563 30.5521 63.6563 31.1354 63.6563 31.7188 63.1458 32.2292 62.5625 32.2292Z" fill="#026773" transform="matrix(1.01429 0 0 1 391 144)"/></g></svg>