<svg width="74" height="74" xmlns="http://www.w3.org/2000/svg" xmlns:xlink="http://www.w3.org/1999/xlink" xml:space="preserve" overflow="hidden"><g transform="translate(-559 -342)"><path d="M617.583 388.25 574.417 388.25 574.417 362.042 617.583 362.042ZM622.208 360.5C622.208 358.797 620.828 357.417 619.125 357.417L572.875 357.417C571.172 357.417 569.792 358.797 569.792 360.5L569.792 392.875 622.208 392.875Z" fill="#026773"/><path d="M600.625 395.958 600.625 396.729C600.651 397.128 600.349 397.474 599.95 397.5 599.918 397.502 599.886 397.502 599.854 397.5L592.146 397.5C591.747 397.526 591.401 397.224 591.375 396.825 591.373 396.793 591.373 396.761 591.375 396.729L591.375 395.958 560.542 395.958 560.542 397.5C560.542 399.203 561.922 400.583 563.625 400.583L628.375 400.583C630.078 400.583 631.458 399.203 631.458 397.5L631.458 395.958Z" fill="#026773"/><path d="M596 364.354C590.04 364.354 585.208 369.186 585.208 375.146 585.208 381.106 590.04 385.938 596 385.938 601.96 385.938 606.792 381.106 606.792 375.146 606.792 369.186 601.96 364.354 596 364.354ZM596.771 375.917 600.309 375.917C599.906 378.574 598.667 381.034 596.771 382.939ZM596.771 374.375 596.771 367.345C598.669 369.252 599.908 371.715 600.309 374.375ZM595.229 374.375 591.807 374.375C592.19 371.76 593.388 369.333 595.229 367.438ZM595.229 375.917 595.229 382.854C593.391 380.956 592.194 378.53 591.807 375.917ZM590.257 374.375 586.958 374.375C587.3 370.337 590.281 367.017 594.258 366.243 592.06 368.435 590.653 371.296 590.257 374.375ZM590.257 375.917C590.654 379.001 592.067 381.865 594.273 384.057 590.29 383.283 587.304 379.96 586.958 375.917ZM601.858 375.917 605.042 375.917C604.704 379.909 601.787 383.205 597.865 384.026 600.062 381.843 601.467 378.989 601.858 375.917ZM601.858 374.375C601.464 371.311 600.068 368.463 597.889 366.274 601.798 367.102 604.704 370.393 605.042 374.375Z" fill="#026773"/></g></svg>