<svg width="57" height="57" xmlns="http://www.w3.org/2000/svg" xmlns:xlink="http://www.w3.org/1999/xlink" xml:space="preserve" overflow="hidden"><g transform="translate(-400 -350)"><path d="M429.509 371.019 442.987 365.378 440.731 359.916 409.737 372.741 411.994 378.203 426.006 372.384 415.794 397.025C415.556 397.619 415.853 398.331 416.447 398.569 416.625 398.688 416.744 398.688 416.922 398.688 417.397 398.688 417.812 398.391 417.991 397.975L423.097 385.625 426.837 385.625 426.837 399.875C426.837 400.528 427.372 401.062 428.025 401.062 428.678 401.062 429.212 400.528 429.212 399.875L429.212 385.625 432.953 385.625 438.059 397.975C438.237 398.45 438.712 398.688 439.128 398.688 439.306 398.688 439.425 398.688 439.603 398.569 440.197 398.331 440.494 397.619 440.256 397.025L429.509 371.019ZM424.106 383.25 426.837 376.6 426.837 383.25 424.106 383.25ZM429.212 383.25 429.212 376.6 432.003 383.25 429.212 383.25Z" fill="#026773"/><path d="M406.707 378.489 405.798 376.294 408.211 375.295 409.12 377.489Z" fill="#026773"/><path d="M448.034 355.641 442.394 357.837 445.6 365.556 451.181 363.3Z" fill="#026773"/></g></svg>