<svg width="56" height="55" xmlns="http://www.w3.org/2000/svg" xmlns:xlink="http://www.w3.org/1999/xlink" xml:space="preserve" overflow="hidden"><g transform="translate(-238 -352)"><path d="M6.04427 48.6979C7.61034 50.2642 10.1496 50.2643 11.7159 48.6982 11.716 48.6981 11.716 48.698 11.7161 48.6979L18.9062 41.5078C19.8404 40.5729 20.254 39.2378 20.012 37.9385L22.5156 35.4062C30.0776 41.1963 40.9014 39.7598 46.6915 32.1979 52.4815 24.636 51.0451 13.8121 43.4832 8.02204 35.9212 2.23203 25.0973 3.66845 19.3073 11.2304 14.5704 17.417 14.5704 26.0113 19.3073 32.1979L16.775 34.7302C15.4757 34.4882 14.1406 34.9017 13.2057 35.8359L6.04427 42.9974C4.47011 44.5556 4.45713 47.0948 6.01528 48.6689 6.02491 48.6786 6.03453 48.6883 6.04427 48.6979ZM19.1927 21.7708C19.1927 14.1769 25.3488 8.02083 32.9427 8.02083 40.5366 8.02083 46.6927 14.1769 46.6927 21.7708 46.6927 29.3647 40.5366 35.5208 32.9427 35.5208 25.3579 35.4988 19.2147 29.3556 19.1927 21.7708Z" fill="#026773" transform="matrix(1.01818 0 0 1 238 352)"/><path d="M41.8229 25.4604 39.2047 22.8651C39.113 22.7953 39.0041 22.7518 38.8896 22.7391L37.274 22.7391C37.2167 22.3953 37.1536 22.0458 37.0792 21.7078L39.176 21.3068C39.4343 21.2589 39.638 21.0597 39.6917 20.8026L40.5682 16.8438C40.6558 16.4905 40.4404 16.1333 40.0872 16.0457 40.0814 16.0443 40.0756 16.0429 40.0698 16.0417 39.7214 15.9613 39.3738 16.1787 39.2935 16.527 39.2925 16.5314 39.2915 16.5358 39.2906 16.5401L38.5057 20.0807 36.7182 20.4188C36.6179 20.0886 36.4754 19.7728 36.2943 19.4792L29.5911 19.4792C29.4087 19.7782 29.2661 20.0999 29.1672 20.4359L27.3797 20.0979 26.6005 16.5573C26.4952 16.209 26.1275 16.012 25.7792 16.1173 25.4688 16.2111 25.2728 16.5168 25.3172 16.838L26.1938 20.7969C26.2502 21.0525 26.4526 21.2503 26.7094 21.301L28.8062 21.7021C28.7318 22.0401 28.6688 22.3896 28.6172 22.7333L26.9786 22.7333C26.8621 22.7447 26.751 22.7884 26.6578 22.8594L24.0625 25.4604C23.773 25.6772 23.714 26.0876 23.9307 26.3771 24.1475 26.6666 24.5579 26.7256 24.8474 26.5089L27.3224 24.0167 28.4682 24.0167C28.4682 24.2115 28.4682 24.3833 28.4682 24.5323 28.4701 24.8738 28.5105 25.2139 28.5885 25.5464L26.9156 25.9646C26.7035 26.0168 26.5315 26.1716 26.4573 26.3771L25.088 30.124C24.9646 30.464 25.1386 30.84 25.4776 30.9661 25.5497 30.9905 25.625 31.004 25.701 31.0063 25.9769 31.0067 26.2238 30.8352 26.3198 30.5766L27.5688 27.1391 29.0812 26.7609C29.7482 27.8939 30.8836 28.6725 32.1807 28.8865L32.3927 28.8177 32.3927 24.0625C32.3927 23.7461 32.6492 23.4896 32.9656 23.4896 33.282 23.4896 33.5385 23.7461 33.5385 24.0625L33.5385 28.8292 33.7505 28.8979C35.0489 28.687 36.1854 27.9076 36.85 26.7724L38.3625 27.1505 39.6172 30.588C39.7096 30.8469 39.9554 31.0191 40.2302 31.0177 40.3063 31.0155 40.3816 31.002 40.4536 30.9776 40.7927 30.8514 40.9666 30.4755 40.8432 30.1354L39.451 26.3542C39.3769 26.1487 39.2049 25.9939 38.9927 25.9417L37.3198 25.5234C37.3978 25.191 37.4382 24.8508 37.4401 24.5094 37.4401 24.3604 37.4401 24.1885 37.4401 23.9938L38.5859 23.9938 41.0609 26.4859C41.2993 26.7566 41.7121 26.7828 41.9828 26.5444 42.2535 26.306 42.2796 25.8934 42.0413 25.6227 41.9806 25.5539 41.9063 25.4986 41.8229 25.4604Z" fill="#026773" transform="matrix(1.01818 0 0 1 238 352)"/><path d="M36.3458 12.2833C36.5567 12.1781 36.6456 11.9242 36.5464 11.7104 36.437 11.5041 36.1859 11.4187 35.9734 11.5156 35.4215 11.7964 34.9546 12.2197 34.6214 12.7417 34.3792 13.1244 34.1866 13.5364 34.0484 13.9677 33.3527 13.6927 32.5785 13.6927 31.8828 13.9677 31.7494 13.5345 31.5566 13.1219 31.3099 12.7417 30.9779 12.2186 30.5107 11.795 29.9578 11.5156 29.7455 11.4155 29.4921 11.5017 29.3849 11.7104 29.2815 11.9225 29.3685 12.1782 29.5797 12.2833 29.9743 12.4926 30.3078 12.8005 30.5479 13.1771 30.7854 13.5474 30.9615 13.9537 31.0693 14.3802 30.0487 15.2009 29.4702 16.4513 29.5052 17.7604 29.507 17.952 29.5203 18.1434 29.5453 18.3333L36.3401 18.3333C36.3651 18.1434 36.3784 17.952 36.3802 17.7604 36.4071 16.4594 35.8295 15.2195 34.8161 14.4031 34.9239 13.9766 35.1 13.5703 35.3375 13.2 35.5855 12.8097 35.9337 12.4931 36.3458 12.2833Z" fill="#026773" transform="matrix(1.01818 0 0 1 238 352)"/></g></svg>